<svg width="39" height="26" viewBox="0 0 39 26" fill="none" xmlns="http://www.w3.org/2000/svg">
<path d="M0 3.25C0 1.45507 1.45507 0 3.25 0H35.75C37.5449 0 39 1.45507 39 3.25V22.75C39 24.5449 37.5449 26 35.75 26H3.25C1.45507 26 0 24.5449 0 22.75V3.25Z" fill="#DCEFDC"/>
<g clip-path="url(#clip0)">
<path d="M29.0909 17.7273H10.9091C10.4091 17.7273 10 17.3182 10 16.8182V6.81822C10 6.31822 10.4091 5.90912 10.9091 5.90912H29.0909C29.5909 5.90912 30 6.31822 30 6.81822V16.8182C30 17.3182 29.5909 17.7273 29.0909 17.7273Z" fill="#0E9347"/>
<path d="M26.8181 14.0909C25.7726 14.0909 24.8181 14.5909 24.2726 15.4091C23.8181 15.1819 23.3181 15 22.7272 15C21.1363 15 19.8181 16.1819 19.5908 17.7273H29.0908C29.5454 17.7273 29.909 17.4091 29.9999 16.9546C29.8181 15.3637 28.4545 14.0909 26.8181 14.0909Z" fill="#0D8944"/>
<path d="M27.2728 16.8181H12.7273C12.7273 15.8181 11.9092 14.9999 10.9092 14.9999V8.63634C11.9092 8.63634 12.7273 7.81817 12.7273 6.81818H27.2728C27.2728 7.81817 28.091 8.63634 29.091 8.63634V14.9999C28.091 14.9999 27.2728 15.8181 27.2728 16.8181Z" fill="#3BB54A"/>
<path d="M26.8181 14.0909C25.7726 14.0909 24.8181 14.5909 24.2726 15.4091C23.8181 15.1819 23.3181 15.0001 22.7272 15.0001C21.4544 15.0001 20.3635 15.7273 19.8635 16.8182H27.2726C27.2726 15.8182 28.0454 15.0455 29.0454 15.0001C28.4544 14.4546 27.6817 14.0909 26.8181 14.0909Z" fill="#0E9347"/>
<path d="M19.9999 15.9091C22.0082 15.9091 23.6363 14.0775 23.6363 11.8182C23.6363 9.55885 22.0082 7.72729 19.9999 7.72729C17.9916 7.72729 16.3635 9.55885 16.3635 11.8182C16.3635 14.0775 17.9916 15.9091 19.9999 15.9091Z" fill="#0E9347"/>
<path d="M14.5453 12.7273C15.0474 12.7273 15.4544 12.3202 15.4544 11.8182C15.4544 11.3161 15.0474 10.9091 14.5453 10.9091C14.0432 10.9091 13.6362 11.3161 13.6362 11.8182C13.6362 12.3202 14.0432 12.7273 14.5453 12.7273Z" fill="#0E9347"/>
<path d="M25.4545 12.7273C25.9566 12.7273 26.3636 12.3202 26.3636 11.8182C26.3636 11.3161 25.9566 10.9091 25.4545 10.9091C24.9524 10.9091 24.5454 11.3161 24.5454 11.8182C24.5454 12.3202 24.9524 12.7273 25.4545 12.7273Z" fill="#0E9347"/>
<path d="M20.4546 11.3636H19.5455C19.2727 11.3636 19.0909 11.1818 19.0909 10.9091C19.0909 10.6363 19.2728 10.4545 19.5455 10.4545H20.9091C21.1818 10.4545 21.3636 10.2727 21.3636 10C21.3636 9.72727 21.1818 9.54547 20.9091 9.54547H20.4546C20.4546 9.27274 20.2727 9.09094 20 9.09094C19.7273 9.09094 19.5455 9.27278 19.5455 9.54547C18.7728 9.54547 18.1819 10.1364 18.1819 10.9091C18.1819 11.6818 18.7728 12.2727 19.5455 12.2727H20.4546C20.7273 12.2727 20.9091 12.4546 20.9091 12.7273C20.9091 13 20.7273 13.1818 20.4546 13.1818H19.091C18.8182 13.1818 18.6365 13.3636 18.6365 13.6363C18.6365 13.9091 18.8183 14.0909 19.091 14.0909H19.5455C19.5455 14.3636 19.7273 14.5454 20 14.5454C20.2728 14.5454 20.4546 14.3636 20.4546 14.0909C21.2273 14.0909 21.8182 13.5 21.8182 12.7272C21.8182 11.9545 21.2273 11.3636 20.4546 11.3636Z" fill="#89C763"/>
<path d="M21.8183 21.3637C23.5756 21.3637 25.0001 19.9391 25.0001 18.1818C25.0001 16.4246 23.5756 15 21.8183 15C20.061 15 18.6365 16.4246 18.6365 18.1818C18.6365 19.9391 20.061 21.3637 21.8183 21.3637Z" fill="#FFCA5D"/>
<path d="M25.9091 20.4546C27.6664 20.4546 29.091 19.0301 29.091 17.2728C29.091 15.5155 27.6664 14.0909 25.9091 14.0909C24.1519 14.0909 22.7273 15.5155 22.7273 17.2728C22.7273 19.0301 24.1519 20.4546 25.9091 20.4546Z" fill="#F6B545"/>
<path d="M25.9091 14.0909C24.1364 14.0909 22.7273 15.5001 22.7273 17.2728C22.7273 19.0455 24.1364 20.4546 25.9091 20.4546C27.6819 20.4546 29.091 19.0455 29.091 17.2728C29.091 15.5001 27.6819 14.0909 25.9091 14.0909ZM25.9091 19.5455C24.6364 19.5455 23.6364 18.5455 23.6364 17.2728C23.6364 16.0001 24.6364 15 25.9091 15C27.1819 15 28.1819 16.0001 28.1819 17.2728C28.1819 18.5455 27.1819 19.5455 25.9091 19.5455Z" fill="#FFCB5B"/>
<path d="M25.9092 20.4091C27.6819 20.4545 29.091 19 29.091 17.2727H29.0455C28.8183 17.2727 28.6364 17.4545 28.591 17.6818C28.5001 18.3182 28.1819 18.9091 27.7274 19.3182C27.3637 19.6818 26.8637 19.9091 26.3183 20C26.091 20 25.9092 20.1818 25.9092 20.4091Z" fill="#F6B545"/>
<path d="M25.9091 14.1364C24.1364 14.0909 22.7273 15.5455 22.7273 17.2727H22.7728C23 17.2727 23.1819 17.0909 23.2273 16.8636C23.3182 16.2273 23.6364 15.6364 24.0909 15.2273C24.4546 14.8636 24.9546 14.6364 25.5 14.5454C25.7273 14.5455 25.9091 14.3636 25.9091 14.1364Z" fill="#FFE27A"/>
<path d="M23.9544 17.5909C23.9544 16.3182 24.9544 15.3182 26.2271 15.3182C26.7726 15.3182 27.2726 15.5 27.6817 15.8636C27.2271 15.3182 26.6362 15 25.909 15C24.6362 15 23.6362 16 23.6362 17.2727C23.6362 18 23.9544 18.5909 24.4544 19C24.1362 18.6364 23.9544 18.1364 23.9544 17.5909Z" fill="#F19920"/>
<path d="M27.2727 18.6818C27.2272 18.6818 27.1818 18.6818 27.1363 18.6364C27.0454 18.5455 27.0454 18.4091 27.1363 18.3182C27.409 18.0455 27.5454 17.6364 27.5454 17.2727C27.5454 17.1364 27.6363 17.0455 27.7727 17.0455C27.909 17.0455 27.9999 17.1364 27.9999 17.2727C27.9999 17.7727 27.8181 18.2727 27.4999 18.6364C27.409 18.6818 27.3181 18.6818 27.2727 18.6818Z" fill="#FFCB5B"/>
<path d="M25.9091 18.6363C25.6364 18.6363 25.4546 18.4545 25.4546 18.1818V16.3637C25.4546 16.0909 25.6364 15.9091 25.9091 15.9091C26.1818 15.9091 26.3637 16.091 26.3637 16.3637V18.1818C26.3637 18.4545 26.1819 18.6363 25.9091 18.6363Z" fill="#F19920"/>
<path d="M27.5909 19.9545C27.2727 18.8182 26.4545 17.9091 25.4091 17.5C25.2272 16.4545 24.5454 15.5455 23.6818 15C23.1363 15.5909 22.7727 16.3636 22.7727 17.2273C22.7727 19 24.1818 20.4091 25.9545 20.4091C26.5455 20.4545 27.0909 20.2727 27.5909 19.9545Z" fill="#F19920"/>
<path d="M24.4547 19C24.1365 18.5909 23.9092 18.0909 23.9092 17.5455C23.9092 16.9091 24.1819 16.3182 24.6365 15.9091C24.5456 15.7727 24.4546 15.6818 24.3637 15.5909C23.9092 16 23.6365 16.5909 23.6365 17.2728C23.6365 18 23.9547 18.5909 24.4547 19Z" fill="#E78825"/>
<path d="M25.4546 17.5455V18.1818C25.4546 18.4546 25.6364 18.6364 25.9091 18.6364C26.1818 18.6364 26.3637 18.4545 26.3637 18.1818V18.0909C26.091 17.8636 25.7728 17.6818 25.4546 17.5455Z" fill="#E78825"/>
<path d="M27.5909 19.9546C27.5 19.6364 27.4091 19.3637 27.2273 19.0909C26.8637 19.3637 26.4091 19.5454 25.9091 19.5454C24.6364 19.5454 23.6364 18.5454 23.6364 17.2727C23.6364 16.5909 23.9091 16 24.3637 15.5909C24.1364 15.3636 23.9091 15.1818 23.6364 15.0454C23.0909 15.6363 22.7273 16.409 22.7273 17.2727C22.7273 19.0454 24.1364 20.4545 25.9091 20.4545C26.5455 20.4546 27.0909 20.2728 27.5909 19.9546Z" fill="#F6B545"/>
<path d="M27.4546 19.5455C27.1365 19.7727 26.7274 19.9091 26.3183 20C26.091 20.0455 25.9092 20.2273 25.9092 20.4545C26.5455 20.4545 27.091 20.2727 27.591 19.9545C27.5456 19.8182 27.5001 19.6818 27.4546 19.5455Z" fill="#F19920"/>
<path d="M23.6364 15.0455C23.0909 15.6364 22.7273 16.4091 22.7273 17.2727H22.7728C23 17.2727 23.1819 17.0909 23.2273 16.8636C23.3182 16.2273 23.6364 15.6818 24.0455 15.2727C23.9091 15.2273 23.7728 15.1364 23.6364 15.0455Z" fill="#FFCB5B"/>
<path d="M21.8183 21.3637C23.5756 21.3637 25.0001 19.9391 25.0001 18.1818C25.0001 16.4246 23.5756 15 21.8183 15C20.061 15 18.6365 16.4246 18.6365 18.1818C18.6365 19.9391 20.061 21.3637 21.8183 21.3637Z" fill="#F6B545"/>
<path d="M21.3638 20.4545C21.3638 20.7727 21.4092 21.0454 21.5001 21.3636C21.591 21.3636 21.7274 21.3636 21.8183 21.3636C23.591 21.3636 25.0001 19.9545 25.0001 18.1818C25.0001 17.8636 24.9547 17.5909 24.8638 17.2727C24.7729 17.2727 24.6365 17.2727 24.5456 17.2727C22.7729 17.2727 21.3638 18.6818 21.3638 20.4545Z" fill="#F19920"/>
<path d="M21.8183 15C20.0456 15 18.6365 16.4091 18.6365 18.1818C18.6365 19.9546 20.0456 21.3637 21.8183 21.3637C23.591 21.3637 25.0001 19.9545 25.0001 18.1818C25.0001 16.4091 23.591 15 21.8183 15ZM21.8183 20.4545C20.5456 20.4545 19.5456 19.4545 19.5456 18.1818C19.5456 16.9091 20.5456 15.9091 21.8183 15.9091C23.091 15.9091 24.091 16.9091 24.091 18.1818C24.091 19.4545 23.091 20.4545 21.8183 20.4545Z" fill="#FFCB5B"/>
<path d="M21.8181 21.3181C23.5908 21.3636 25 19.9091 25 18.1818H24.9545C24.7272 18.1818 24.5454 18.3637 24.5 18.5909C24.4091 19.2273 24.0908 19.8182 23.6363 20.2273C23.2727 20.5909 22.7727 20.8182 22.2272 20.9091C22 20.9091 21.8181 21.0909 21.8181 21.3181Z" fill="#F6B545"/>
<path d="M21.8183 15.0455C20.0456 15 18.6365 16.4546 18.6365 18.1818H18.6819C18.9092 18.1818 19.091 18 19.1365 17.7727C19.2274 17.1364 19.5456 16.5455 20.0001 16.1364C20.3637 15.7727 20.8637 15.5455 21.4092 15.4545C21.6365 15.4545 21.8183 15.2727 21.8183 15.0455Z" fill="#FFE27A"/>
<path d="M19.8636 18.5C19.8636 17.2273 20.8636 16.2273 22.1363 16.2273C22.6818 16.2273 23.1818 16.4091 23.5909 16.7728C23.1363 16.2273 22.5454 15.9091 21.8181 15.9091C20.5454 15.9091 19.5454 16.9091 19.5454 18.1819C19.5454 18.9091 19.8636 19.5 20.3636 19.9091C20.0454 19.5455 19.8636 19.0455 19.8636 18.5Z" fill="#F19920"/>
<path d="M23.1818 19.5909C23.1364 19.5909 23.0909 19.5909 23.0455 19.5454C22.9546 19.4545 22.9546 19.3182 23.0455 19.2273C23.3182 18.9545 23.4546 18.5454 23.4546 18.1818C23.4546 18.0454 23.5455 17.9545 23.6819 17.9545C23.8182 17.9545 23.9091 18.0454 23.9091 18.1818C23.9091 18.6818 23.7273 19.1818 23.4091 19.5454C23.3182 19.5909 23.2273 19.5909 23.1818 19.5909Z" fill="#FFCB5B"/>
<path d="M21.8183 19.5455C21.5456 19.5455 21.3638 19.3636 21.3638 19.0909V17.2728C21.3638 17 21.5456 16.8182 21.8183 16.8182C22.091 16.8182 22.2728 17.0001 22.2728 17.2728V19.0909C22.2729 19.3636 22.091 19.5455 21.8183 19.5455Z" fill="#F19920"/>
<path d="M23.9094 17.3182C24.0003 17.5909 24.0913 17.8636 24.0913 18.1818C24.0913 19.4545 23.0913 20.4545 21.8185 20.4545C21.6822 20.4545 21.5004 20.4545 21.364 20.4091V20.4545C21.364 20.7727 21.4095 21.0454 21.5004 21.3636C21.5913 21.3636 21.7276 21.3636 21.8185 21.3636C23.5913 21.3636 25.0004 19.9545 25.0004 18.1818C25.0004 17.8636 24.9549 17.5909 24.864 17.2727C24.7731 17.2727 24.6367 17.2727 24.5458 17.2727C24.3185 17.2727 24.1367 17.2727 23.9094 17.3182Z" fill="#F6B545"/>
<path d="M24.091 24.091C25.8483 24.091 27.2729 22.6664 27.2729 20.9091C27.2729 19.1519 25.8483 17.7273 24.091 17.7273C22.3337 17.7273 20.9092 19.1519 20.9092 20.9091C20.9092 22.6664 22.3337 24.091 24.091 24.091Z" fill="#F6B545"/>
<path d="M24.091 17.7273C22.3183 17.7273 20.9092 19.1364 20.9092 20.9091C20.9092 22.6819 22.3183 24.091 24.091 24.091C25.8637 24.091 27.2729 22.6819 27.2729 20.9091C27.2729 19.1364 25.8637 17.7273 24.091 17.7273ZM24.091 23.1819C22.8183 23.1819 21.8183 22.1819 21.8183 20.9091C21.8183 19.6364 22.8183 18.6364 24.091 18.6364C25.3637 18.6364 26.3637 19.6364 26.3637 20.9091C26.3637 22.1819 25.3637 23.1819 24.091 23.1819Z" fill="#FFCB5B"/>
<path d="M24.0908 24.0455C25.8636 24.0909 27.2727 22.6364 27.2727 20.9091H27.2272C26.9999 20.9091 26.8181 21.091 26.7727 21.3182C26.6818 21.9546 26.3636 22.5455 25.909 22.9546C25.5454 23.3182 25.0454 23.5455 24.4999 23.6364C24.2727 23.6364 24.0908 23.8182 24.0908 24.0455Z" fill="#F6B545"/>
<path d="M24.091 17.7727C22.3183 17.7272 20.9092 19.1818 20.9092 20.9091H20.9546C21.1819 20.9091 21.3637 20.7272 21.4092 20.5C21.5001 19.8636 21.8183 19.2727 22.2728 18.8636C22.6364 18.5 23.1364 18.2727 23.6819 18.1818C23.9092 18.1818 24.091 18 24.091 17.7727Z" fill="#FFE27A"/>
<path d="M22.1363 21.2273C22.1363 19.9545 23.1363 18.9545 24.4091 18.9545C24.9545 18.9545 25.4545 19.1364 25.8636 19.5C25.4091 18.9545 24.8181 18.6364 24.0908 18.6364C22.8181 18.6364 21.8181 19.6364 21.8181 20.9091C21.8181 21.6364 22.1363 22.2273 22.6363 22.6364C22.3181 22.2727 22.1363 21.7727 22.1363 21.2273Z" fill="#F19920"/>
<path d="M25.4545 22.3182C25.4091 22.3182 25.3636 22.3182 25.3182 22.2727C25.2273 22.1818 25.2273 22.0455 25.3182 21.9546C25.5909 21.6818 25.7273 21.2727 25.7273 20.9091C25.7273 20.7727 25.8182 20.6818 25.9546 20.6818C26.0909 20.6818 26.1818 20.7727 26.1818 20.9091C26.1818 21.4091 26 21.9091 25.6818 22.2727C25.5909 22.3182 25.5 22.3182 25.4545 22.3182Z" fill="#FFCB5B"/>
<path d="M24.0908 22.2727C23.818 22.2727 23.6362 22.0909 23.6362 21.8182V20C23.6362 19.7273 23.8181 19.5455 24.0908 19.5455C24.3635 19.5455 24.5453 19.7273 24.5453 20V21.8182C24.5453 22.0909 24.3635 22.2727 24.0908 22.2727Z" fill="#F19920"/>
</g>
<defs>
<clipPath id="clip0">
<rect width="20" height="20" fill="white" transform="translate(10 5)"/>
</clipPath>
</defs>
</svg>
