<svg width="106" height="125" viewBox="0 0 106 125" fill="none" xmlns="http://www.w3.org/2000/svg">
<path d="M60.6664 124.281C57.7445 124.714 54.7547 124.94 51.7125 124.94C40.584 124.94 30.1582 121.936 21.1965 116.699C22.6129 111.443 25.338 106.771 28.9707 103.006C28.8162 103.166 28.6626 103.327 28.5116 103.49H65.9344L60.6664 124.281Z" fill="#E9E3D5"/>
<path d="M82.2281 116.699C80.9153 111.827 78.4689 107.545 75.4674 104.103C73.5177 101.919 71.4971 100.069 68.9428 98.4441C68.7676 98.317 67.9061 97.7948 67.6292 97.6329C54.6122 89.9999 38.4302 92.7707 28.5115 103.49C37.1041 107.011 46.3953 108.619 55.7286 108.189C56.0771 108.279 56.4049 108.318 56.716 108.318C58.8977 108.318 60.6665 110.087 60.6665 112.269V124.281C68.4316 123.129 75.7168 120.504 82.2281 116.699Z" fill="#D3CDBF"/>
<path d="M74.9552 120.316C72.8817 121.178 70.7503 121.929 68.5679 122.561V108.318C71.7598 111.547 74.0311 115.688 74.9552 120.316Z" fill="#A19B8D"/>
<path d="M34.857 108.318V122.561C32.6746 121.93 30.5432 121.178 28.4697 120.316C29.3938 115.688 31.6648 111.547 34.857 108.318Z" fill="#B6B0A2"/>
<path d="M52.7661 116.353C53.857 116.353 54.7413 115.468 54.7413 114.377C54.7413 113.287 53.857 112.402 52.7661 112.402C51.6753 112.402 50.791 113.287 50.791 114.377C50.791 115.468 51.6753 116.353 52.7661 116.353Z" fill="#3E4954"/>
<path d="M52.7661 124.253C53.857 124.253 54.7413 123.369 54.7413 122.278C54.7413 121.188 53.857 120.303 52.7661 120.303C51.6753 120.303 50.791 121.188 50.791 122.278C50.791 123.369 51.6753 124.253 52.7661 124.253Z" fill="#3E4954"/>
<path d="M89.6371 65.461C89.6371 45.0436 73.0744 23.3224 52.7657 23.3224C35.922 23.3224 21.7172 38.2206 17.3094 54.8948C15.6981 54.075 13.8759 53.6095 11.9438 53.6095C5.39848 53.6095 0.0922852 58.9154 0.0922852 65.461C0.0922852 72.0066 5.39822 77.3126 11.9438 77.3126C12.2833 77.3126 12.6183 77.2949 12.9505 77.2669C13.2808 84.0523 16.9114 90.5109 23.2743 94.2832C41.3787 105.015 64.1527 105.015 82.2571 94.2832C92.4185 88.2594 95.5456 75.4905 89.6371 65.461Z" fill="#FFB578"/>
<path d="M93.5876 53.6095C91.6545 53.6095 89.8312 54.0753 88.2191 54.8964C85.2988 43.8462 78.0808 33.5958 68.6596 27.925C68.6596 27.925 78.8251 39.9175 78.8251 62.8288C78.8251 69.8338 75.0757 76.5903 68.4764 80.5022C51.8517 90.3571 31.2903 91.161 14.022 82.9172C15.5692 87.5048 18.7199 91.583 23.2745 94.2829C41.3789 105.015 64.153 105.015 82.2571 94.2829C88.6499 90.4933 92.2555 84.0341 92.5817 77.2669C92.9136 77.2949 93.2484 77.3126 93.5876 77.3126C100.133 77.3126 105.439 72.0066 105.439 65.461C105.439 58.9154 100.133 53.6095 93.5876 53.6095Z" fill="#F7A16E"/>
<path d="M11.9442 69.4128C14.126 69.4128 15.8947 67.6441 15.8947 65.4623C15.8947 63.2805 14.126 61.5118 11.9442 61.5118C9.76236 61.5118 7.99365 63.2805 7.99365 65.4623C7.99365 67.6441 9.76236 69.4128 11.9442 69.4128Z" fill="#F7A16E"/>
<path d="M93.588 69.4129C95.7698 69.4129 97.5385 67.6442 97.5385 65.4624C97.5385 63.2805 95.7698 61.5118 93.588 61.5118C91.4062 61.5118 89.6375 63.2805 89.6375 65.4624C89.6375 67.6442 91.4062 69.4129 93.588 69.4129Z" fill="#CE795F"/>
<path d="M17.3095 54.8803C19.9693 56.2334 22.0495 58.5599 23.0813 61.3909C23.5539 62.6879 25.1815 63.1322 26.2206 62.2237C31.1899 57.8797 34.3302 51.4963 34.3302 44.3772C34.3302 39.9513 33.1157 35.8097 31.0039 32.2646C31.0039 32.2648 15.0373 36.6762 17.3095 54.8803Z" fill="#596775"/>
<path d="M74.5278 32.2648C72.4162 35.8097 71.2014 39.9515 71.2014 44.3774C71.2014 51.4966 74.3415 57.88 79.3111 62.2239C80.3507 63.1324 81.9781 62.6882 82.4504 61.3911C83.4816 58.5599 85.5624 56.2336 88.2221 54.8806C90.4946 36.6762 74.5278 32.2648 74.5278 32.2648Z" fill="#46525E"/>
<path d="M87.0035 15.4068H18.5283V43.5739H87.0035V15.4068Z" fill="#E9E3D5"/>
<path d="M85.5548 0C83.6446 0 20.9876 0 19.9765 0C13.3585 0 7.99341 5.3651 7.99341 11.9831C7.99341 18.6011 13.3585 23.9662 19.9765 23.9662C20.4844 23.9662 84.2469 23.9662 85.5548 23.9662C92.1728 23.9662 97.5379 18.6011 97.5379 11.9831C97.5379 5.3651 92.1728 0 85.5548 0Z" fill="#E9E3D5"/>
<path d="M97.538 11.9831C97.538 9.90205 97.0068 7.94535 96.0736 6.24011C93.5091 6.892 91.6121 9.21591 91.6121 11.9831C91.6121 15.3229 88.8948 18.0405 85.5546 18.0405H19.9766C17.2094 18.0405 14.8855 19.9375 14.2336 22.502C15.9389 23.4352 17.8956 23.9664 19.9766 23.9664H31.6963H52.7656C67.2945 23.9664 84.2174 23.9664 85.5546 23.9664C92.1729 23.9662 97.538 18.6013 97.538 11.9831Z" fill="#D3CDBF"/>
<path d="M21.6885 11.9831C21.6885 10.8921 20.8041 10.008 19.7134 10.008C18.6224 10.008 17.7383 10.8924 17.7383 11.9831C17.7383 15.267 18.8809 18.2876 20.7862 20.6741H26.7443C23.7272 18.9484 21.6885 15.7006 21.6885 11.9831Z" fill="#D3CDBF"/>
<path d="M87.7933 11.9831C87.7933 10.8921 86.9089 10.008 85.8182 10.008C84.7275 10.008 83.8431 10.8924 83.8431 11.9831C83.8431 15.7006 81.8044 18.9484 78.7878 20.6741H84.7459C86.6507 18.2876 87.7933 15.2672 87.7933 11.9831Z" fill="#D3CDBF"/>
<path d="M73.8351 10.008C72.7441 10.008 71.8599 10.8924 71.8599 11.9831C71.8599 15.7006 69.8212 18.9484 66.8047 20.6741H72.7628C74.6678 18.2874 75.8107 15.267 75.8107 11.9831C75.8105 10.8924 74.926 10.008 73.8351 10.008Z" fill="#D3CDBF"/>
<path d="M37.4903 11.9831C37.4903 10.8921 36.6059 10.008 35.5152 10.008C34.4244 10.008 33.54 10.8924 33.54 11.9831C33.54 15.267 34.6827 18.2876 36.588 20.6741H42.5461C39.5293 18.9484 37.4903 15.7006 37.4903 11.9831Z" fill="#D3CDBF"/>
</svg>
