<svg width="25" height="25" viewBox="0 0 25 25" fill="none" xmlns="http://www.w3.org/2000/svg">
<path d="M19.2214 14.0736C19.2212 14.0699 19.2212 14.0663 19.2209 14.0627C19.2195 14.0472 19.2171 14.0321 19.214 14.0173C19.2137 14.0158 19.2132 14.0145 19.2129 14.013C19.2099 13.9996 19.2062 13.9865 19.2018 13.9736C19.2007 13.9702 19.1993 13.9668 19.1981 13.9633C19.1941 13.9524 19.1897 13.9417 19.1848 13.9313C19.1831 13.9276 19.1813 13.9239 19.1795 13.9203C19.174 13.9096 19.1681 13.8991 19.1617 13.8889C19.1601 13.8863 19.1586 13.8835 19.1568 13.8809C19.1485 13.8683 19.1396 13.8563 19.13 13.8448C19.1282 13.8426 19.1262 13.8406 19.1243 13.8385C19.1163 13.8293 19.1079 13.8204 19.099 13.812C19.0975 13.8106 19.0963 13.809 19.0948 13.8076L14.7876 9.82346C14.7139 9.75526 14.6171 9.71739 14.5167 9.71739H10.5086C10.4082 9.71739 10.3114 9.75526 10.2377 9.82346L5.93058 13.8076C5.83276 13.898 5.78659 14.0314 5.8075 14.163L6.88425 20.9467C6.915 21.1405 7.08207 21.2831 7.27824 21.2831H17.7471C17.9432 21.2831 18.1103 21.1404 18.141 20.9467L19.2178 14.163C19.2182 14.1604 19.2182 14.1578 19.2185 14.1552C19.22 14.1448 19.2209 14.1343 19.2216 14.1236C19.2219 14.1183 19.2223 14.1131 19.2224 14.1079C19.2224 14.1054 19.2227 14.1029 19.2227 14.1004C19.2228 14.0914 19.222 14.0825 19.2214 14.0736ZM17.805 13.7015H10.9075V10.6482C10.9075 10.5868 10.8453 10.5424 10.7556 10.5153H14.3605L17.805 13.7015ZM6.62893 14.2485L10.1097 11.0288V20.4853H7.61888L6.62893 14.2485ZM17.4065 20.4852H10.9075V14.4994H18.3566L17.4065 20.4852Z" fill="white"/>
<path d="M22.0621 15.2014C21.8426 15.187 21.6519 15.3523 21.6368 15.5721C21.3514 19.7286 18.3743 24.2021 12.5126 24.2021C9.94226 24.2021 7.71029 23.322 6.058 21.6569C4.32604 19.9115 3.34428 17.4139 3.36449 14.8046C3.3971 10.5897 6.00157 6.58059 6.92444 5.29117L8.39604 7.37165C8.58173 7.63319 8.81784 7.56777 8.88582 7.54138C8.99215 7.50027 9.07577 7.41553 9.11561 7.30872C9.11832 7.30149 9.12524 7.28128 9.13603 7.24894C9.45439 6.29516 10.6061 3.13293 12.5126 0.985319C14.4193 3.13314 15.571 6.29532 15.8893 7.2491C15.9 7.28128 15.9069 7.30138 15.9096 7.30862C15.95 7.41686 16.0352 7.50229 16.1434 7.54287C16.4315 7.65101 16.5853 7.43383 16.687 7.29016L18.1008 5.29112C18.9679 6.50218 21.3182 10.1117 21.6268 14.0349C21.644 14.2545 21.8345 14.4187 22.0557 14.4013C22.2754 14.384 22.4394 14.192 22.4222 13.9723C22.2142 11.3275 21.1327 8.85606 20.2622 7.24851C19.3217 5.51202 18.4404 4.4084 18.4033 4.36229C18.3249 4.26468 18.205 4.20915 18.0801 4.2134C17.9549 4.21723 17.8389 4.27963 17.7666 4.38186C17.3912 4.91271 16.8054 5.74138 16.4032 6.31C15.8541 4.83532 14.6398 2.01734 12.7989 0.120957C12.7237 0.0436702 12.6205 0 12.5126 0C12.4048 0 12.3015 0.0436702 12.2264 0.121064C10.3857 2.01734 9.17125 4.83548 8.62215 6.31011C8.21992 5.74154 7.63401 4.91282 7.25875 4.38197C7.18651 4.27973 7.0704 4.21739 6.94524 4.21351C6.82024 4.20952 6.7004 4.26479 6.62199 4.36239C6.58093 4.41351 5.6046 5.63612 4.61125 7.5333C3.69056 9.29165 2.58848 11.9794 2.56667 14.7985C2.54486 17.619 3.61098 20.3236 5.49167 22.2189C7.29705 24.0383 9.72486 25 12.5126 25C15.3709 25 17.8426 23.9931 19.6604 22.0883C21.2785 20.3927 22.2631 18.0979 22.4327 15.6268C22.4479 15.4069 22.2819 15.2165 22.0621 15.2014Z" fill="white"/>
<path d="M14.735 17.3155C14.515 17.3155 14.3361 17.4945 14.3361 17.7144C14.3361 17.9344 14.515 18.1133 14.735 18.1133C14.9549 18.1133 15.1339 17.9344 15.1339 17.7144C15.1339 17.4945 14.955 17.3155 14.735 17.3155Z" fill="white"/>
<path d="M16.1024 18.6761C15.8824 18.6761 15.7034 18.855 15.7034 19.075C15.7034 19.2949 15.8824 19.4739 16.1024 19.4739C16.3223 19.4739 16.5013 19.2949 16.5013 19.075C16.5013 18.855 16.3224 18.6761 16.1024 18.6761Z" fill="white"/>
</svg>
