<svg width="39" height="26" viewBox="0 0 39 26" fill="none" xmlns="http://www.w3.org/2000/svg">
<path d="M0 3.25C0 1.45507 1.45507 0 3.25 0H35.75C37.5449 0 39 1.45507 39 3.25V22.75C39 24.5449 37.5449 26 35.75 26H3.25C1.45507 26 0 24.5449 0 22.75V3.25Z" fill="#FDEACE"/>
<path d="M23.4292 5.30351L15.1768 5.3595L15.571 20.6966L23.8234 20.6406L23.4292 5.30351Z" fill="#FF5F00"/>
<path d="M15.6806 13.0319C15.5994 9.91512 16.9563 7.14097 19.1061 5.33729C17.458 4.04734 15.4 3.27522 13.1772 3.29032C7.91125 3.3261 3.76454 7.71853 3.90503 13.1119C4.04552 18.5053 8.41956 22.8398 13.6855 22.804C15.9083 22.7889 17.9254 21.9891 19.5057 20.6772C17.2634 18.9305 15.7618 16.1487 15.6806 13.0319Z" fill="#EB001B"/>
<path d="M35.0951 12.8882C35.2356 18.2815 31.0889 22.674 25.8229 22.7097C23.6001 22.7248 21.5421 21.9527 19.894 20.6628C22.0702 18.8589 23.4007 16.0849 23.3195 12.9682C23.2383 9.85139 21.7374 7.09665 19.4944 5.32282C21.0747 4.01094 23.0918 3.21112 25.3146 3.19602C30.5805 3.16024 34.9553 7.52188 35.0951 12.8882Z" fill="#F79E1B"/>
</svg>
