<svg width="25" height="25" viewBox="0 0 25 25" fill="none" xmlns="http://www.w3.org/2000/svg">
<path d="M7.81252 19.3341V23.8281C7.81252 23.9317 7.85368 24.0311 7.92693 24.1043C8.00019 24.1776 8.09955 24.2188 8.20315 24.2188H21.4844C21.588 24.2188 21.6874 24.1776 21.7606 24.1043C21.8339 24.0311 21.875 23.9317 21.875 23.8281V14.4531C21.8748 14.1326 21.7959 13.817 21.6452 13.534L18.75 8.10547V1.17188C18.75 1.06827 18.7089 0.968918 18.6356 0.895661C18.5624 0.822405 18.463 0.78125 18.3594 0.78125H8.20315C8.09955 0.78125 8.00019 0.822405 7.92693 0.895661C7.85368 0.968918 7.81252 1.06827 7.81252 1.17188V2.54258L3.39895 3.92407C3.34999 3.9394 3.30453 3.96421 3.26516 3.99711C3.22579 4.03 3.19329 4.07032 3.16951 4.11578C3.14573 4.16123 3.13113 4.21093 3.12656 4.26202C3.12198 4.31312 3.12752 4.36462 3.14284 4.41357L7.81252 19.3341ZM7.31472 5.97319L7.08127 5.22729L7.81252 4.99839V11.4866L6.31321 6.69604L7.05867 6.46265C7.15752 6.43169 7.24003 6.36273 7.28805 6.27095C7.33607 6.17916 7.34566 6.07205 7.31472 5.97319ZM21.0938 14.4531V23.4375H18.75C17.8308 23.4364 16.9484 23.0758 16.2916 22.4326C15.6347 21.7895 15.2556 20.9149 15.2352 19.9958C15.2548 19.8942 15.2332 19.7889 15.1753 19.7032L12.6416 15.9529C12.5539 15.8255 12.4923 15.6819 12.4604 15.5305C12.4285 15.3791 12.4269 15.2229 12.4556 15.0709C12.4844 14.9188 12.543 14.774 12.628 14.6447C12.713 14.5155 12.8228 14.4043 12.951 14.3177C13.0792 14.2311 13.2233 14.1707 13.3749 14.14C13.5266 14.1094 13.6828 14.1091 13.8346 14.1391C13.9864 14.1692 14.1307 14.229 14.2593 14.3151C14.3878 14.4012 14.498 14.5119 14.5836 14.6408C14.5859 14.6442 14.5885 14.6476 14.5907 14.6509L16.8712 17.8069C16.9074 17.857 16.9549 17.8978 17.0099 17.9259C17.0649 17.954 17.1258 17.9687 17.1875 17.9688H18.3594C18.463 17.9688 18.5624 17.9276 18.6356 17.8543C18.7089 17.7811 18.75 17.6817 18.75 17.5781V9.76562L20.9559 13.9017C21.0463 14.0715 21.0936 14.2608 21.0938 14.4531ZM10.9375 20.7031H10.1563V4.29688H10.9375C11.0411 4.29688 11.1405 4.25572 11.2137 4.18246C11.287 4.10921 11.3281 4.00985 11.3281 3.90625V3.125H15.2344V3.90625C15.2344 4.00985 15.2756 4.10921 15.3488 4.18246C15.4221 4.25572 15.5214 4.29688 15.625 4.29688H16.4063V15.8301L15.2271 14.1981C15.181 14.1308 15.1308 14.0664 15.0768 14.0053C15.3783 13.6455 15.5648 13.2035 15.6121 12.7365C15.6594 12.2695 15.5654 11.799 15.3422 11.3861C15.119 10.9731 14.777 10.6367 14.3603 10.4205C13.9437 10.2042 13.4718 10.1181 13.0056 10.1732C12.5395 10.2283 12.1006 10.4222 11.7459 10.7296C11.3912 11.0371 11.1371 11.444 11.0163 11.8976C10.8956 12.3512 10.9139 12.8307 11.0689 13.2738C11.2238 13.7168 11.5083 14.1032 11.8854 14.3827C11.7204 14.6959 11.6433 15.048 11.6625 15.4015C11.6816 15.7551 11.7962 16.0968 11.994 16.3904L14.4545 20.032C14.4703 20.6738 14.6307 21.3038 14.9238 21.875H11.3281V21.0938C11.3281 20.9902 11.287 20.8908 11.2137 20.8175C11.1405 20.7443 11.0411 20.7031 10.9375 20.7031ZM12.5189 13.6785C12.4722 13.7101 12.4275 13.7437 12.3842 13.7787C12.125 13.5969 11.9272 13.3407 11.8169 13.0441C11.7066 12.7474 11.6889 12.4242 11.7663 12.1173C11.8437 11.8104 12.0125 11.5343 12.2504 11.3254C12.4882 11.1165 12.7838 10.9848 13.0982 10.9477C13.4125 10.9106 13.7307 10.9698 14.0106 11.1176C14.2906 11.2653 14.519 11.4945 14.6658 11.775C14.8125 12.0554 14.8707 12.3738 14.8325 12.688C14.7943 13.0022 14.6616 13.2974 14.4519 13.5345C14.145 13.3883 13.8053 13.3247 13.4663 13.3499C13.1273 13.3752 12.8007 13.4884 12.5189 13.6785ZM8.59377 1.5625H17.9688V17.1875H17.3872L17.1875 16.9112V3.90625C17.1875 3.80265 17.1464 3.70329 17.0731 3.63004C16.9999 3.55678 16.9005 3.51562 16.7969 3.51562H16.0157V2.73438C16.0157 2.63077 15.9745 2.53142 15.9012 2.45816C15.828 2.38491 15.7286 2.34375 15.625 2.34375H10.9375C10.8339 2.34375 10.7346 2.38491 10.6613 2.45816C10.5881 2.53142 10.5469 2.63077 10.5469 2.73438V3.51562H9.76565C9.66205 3.51562 9.56269 3.55678 9.48944 3.63004C9.41618 3.70329 9.37502 3.80265 9.37502 3.90625V21.0938C9.37502 21.1973 9.41618 21.2967 9.48944 21.37C9.56269 21.4432 9.66205 21.4844 9.76565 21.4844H10.5469V22.2656C10.5469 22.3692 10.5881 22.4686 10.6613 22.5418C10.7346 22.6151 10.8339 22.6562 10.9375 22.6562H15.4389C15.6846 22.9531 15.9688 23.2158 16.2839 23.4375H8.59377V1.5625ZM7.81252 3.36118V4.17969L6.47512 4.59834C6.37626 4.62929 6.29373 4.69824 6.2457 4.79003C6.19768 4.88182 6.18808 4.98893 6.21902 5.08779L6.45246 5.83374L5.707 6.06709C5.65805 6.08242 5.61259 6.10724 5.57323 6.14013C5.53387 6.17303 5.50137 6.21336 5.4776 6.25881C5.45382 6.30426 5.43923 6.35396 5.43466 6.40505C5.43009 6.45614 5.43562 6.50764 5.45095 6.55659L7.81252 14.1021V16.7185L4.0051 4.55298L7.81252 3.36118Z" fill="white"/>
</svg>
