<svg width="39" height="26" viewBox="0 0 39 26" fill="none" xmlns="http://www.w3.org/2000/svg">
<path d="M0 3.25C0 1.45507 1.45507 0 3.25 0H35.75C37.5449 0 39 1.45507 39 3.25V22.75C39 24.5449 37.5449 26 35.75 26H3.25C1.45507 26 0 24.5449 0 22.75V3.25Z" fill="#D8DDF3"/>
<path d="M26.2077 8.15109C26.2077 8.25537 26.2077 8.35965 26.1035 8.46393C25.2692 12.6351 22.558 13.9907 19.0126 13.9907H17.2398C16.8227 13.9907 16.4056 14.3035 16.4056 14.7206L15.4671 20.5602L15.2585 22.2286C15.2585 22.5415 15.4671 22.75 15.6757 22.75H18.9083C19.3254 22.75 19.6382 22.4372 19.6382 22.1244V21.9158L20.2639 18.1618V17.9532C20.3682 17.5361 20.681 17.3276 20.9938 17.3276H21.5152C24.6436 17.3276 27.042 16.0762 27.6676 12.4265C27.9805 10.8623 27.7719 9.61099 27.042 8.77676C26.8334 8.56821 26.5206 8.35965 26.2077 8.15109Z" fill="#2199D6"/>
<path d="M25.3734 7.83822C25.2691 7.83822 25.1649 7.73395 24.9563 7.73395C24.852 7.73395 24.6435 7.62967 24.5392 7.62967C24.0178 7.52539 23.4964 7.52539 22.975 7.52539H18.1782C18.074 7.52539 17.9697 7.52539 17.8654 7.62967C17.6568 7.73395 17.4483 7.9425 17.4483 8.15106L16.4055 14.6163V14.8249C16.5098 14.4077 16.8226 14.0949 17.2397 14.0949H19.0125C22.5579 14.0949 25.2691 12.635 26.1034 8.56817C26.1034 8.46389 26.1034 8.35962 26.2077 8.25534C25.9991 8.15106 25.7905 8.04678 25.582 7.9425C25.4777 7.83823 25.3734 7.83822 25.3734 7.83822Z" fill="#252C5E"/>
<path d="M17.4483 8.15107C17.4483 7.94251 17.6569 7.73395 17.8654 7.62968C17.9697 7.62968 18.074 7.5254 18.1783 7.5254H22.9751C23.4965 7.5254 24.1221 7.5254 24.5392 7.62968C24.6435 7.62968 24.8521 7.62968 24.9564 7.73396C25.0606 7.73396 25.1649 7.83823 25.3735 7.83823C25.4777 7.83823 25.4777 7.83824 25.582 7.94251C25.7906 8.04679 25.9991 8.15107 26.2077 8.25535C26.4162 6.69118 26.2077 5.64839 25.3735 4.70989C24.435 3.66711 22.7665 3.25 20.6809 3.25H14.5285C14.1114 3.25 13.6943 3.56283 13.6943 3.97994L11.1917 20.0388C11.1917 20.3516 11.4002 20.6644 11.713 20.6644H15.467L16.4056 14.6163L17.4483 8.15107Z" fill="#263577"/>
</svg>
