<svg width="39" height="26" viewBox="0 0 39 26" fill="none" xmlns="http://www.w3.org/2000/svg">
<path d="M0 3.25C0 1.45507 1.45507 0 3.25 0H35.75C37.5449 0 39 1.45507 39 3.25V22.75C39 24.5449 37.5449 26 35.75 26H3.25C1.45507 26 0 24.5449 0 22.75V3.25Z" fill="#D8E3F3"/>
<path d="M33.5643 8.15344H31.5212C30.9035 8.15344 30.4284 8.3435 30.1433 8.96119L26.2471 17.8464H29.0029C29.0029 17.8464 29.4781 16.6586 29.5731 16.3735C29.8582 16.3735 32.5665 16.3735 32.9466 16.3735C33.0417 16.7061 33.2792 17.7989 33.2792 17.7989H35.75L33.5643 8.15344ZM30.3333 14.3779C30.5709 13.8077 31.3786 11.6695 31.3786 11.6695C31.3786 11.717 31.6162 11.0993 31.7113 10.7667L31.9013 11.622C31.9013 11.622 32.424 13.9502 32.519 14.4254H30.3333V14.3779Z" fill="#3362AB"/>
<path d="M26.4371 14.663C26.4371 16.6586 24.6316 17.989 21.8282 17.989C20.6404 17.989 19.5 17.7514 18.8823 17.4663L19.2624 15.2807L19.595 15.4232C20.4503 15.8033 21.0205 15.9459 22.0658 15.9459C22.826 15.9459 23.6338 15.6608 23.6338 14.9956C23.6338 14.5679 23.3012 14.2829 22.2559 13.8077C21.2581 13.3326 19.9276 12.5723 19.9276 11.1944C19.9276 9.29382 21.7807 8.01093 24.394 8.01093C25.3918 8.01093 26.2471 8.20098 26.7697 8.43856L26.3896 10.5292L26.1996 10.3391C25.7244 10.1491 25.1067 9.95902 24.204 9.95902C23.2062 10.0065 22.731 10.4342 22.731 10.8143C22.731 11.2419 23.3012 11.5745 24.204 12.0022C25.7244 12.7149 26.4371 13.5226 26.4371 14.663Z" fill="#3362AB"/>
<path d="M3.25 8.24853L3.29751 8.05847H7.38377C7.95395 8.05847 8.38158 8.24853 8.52412 8.86622L9.4269 13.1425C8.52412 10.8618 6.43348 9.00876 3.25 8.24853Z" fill="#F9B50B"/>
<path d="M15.1761 8.15347L11.0424 17.7989H8.23901L5.86328 9.72145C7.57381 10.8143 8.99925 12.5248 9.52191 13.7127L9.80699 14.7105L12.3728 8.10596H15.1761V8.15347Z" fill="#3362AB"/>
<path d="M16.269 8.10596H18.8823L17.2193 17.7989H14.606L16.269 8.10596Z" fill="#3362AB"/>
</svg>
