<svg width="30" height="30" viewBox="0 0 30 30" fill="none" xmlns="http://www.w3.org/2000/svg">
<g clip-path="url(#clip0)">
<path d="M21.1049 16.3515L18.6161 15.7295C19.6458 14.8148 20.4782 13.5563 21.0332 12.1683C21.8577 12.019 22.631 11.3641 22.7553 9.85965C22.875 8.40585 22.3969 7.80617 21.7828 7.56617C21.7663 7.1013 21.7072 6.66995 21.6828 6.26228C21.4054 1.66941 19.0968 -0.350539 15.3646 0.0492422C14.8754 0.101845 14.3967 0.132092 13.9108 0.0531874C11.9619 -0.267032 9.92744 1.22952 8.93654 2.78985C7.65369 4.80979 8.14356 7.52212 8.14027 7.61089C7.57808 7.87719 7.15923 8.48804 7.27232 9.85965C7.39265 11.3154 8.11988 11.9763 8.91419 12.1518C9.48098 13.5445 10.3292 14.8155 11.3688 15.738L8.90038 16.3535C5.53117 17.1971 3.17062 20.2099 3.17062 23.6823V27.838C3.17062 29.0176 4.1464 29.9999 5.32602 29.9999H24.6838C25.8634 29.9999 26.8307 29.0176 26.8307 27.8386V23.683C26.83 20.2092 24.4734 17.1951 21.1049 16.3515ZM7.26443 28.6849H5.32536C4.87101 28.6849 4.48438 28.293 4.48438 27.8386V23.683C4.48438 21.5526 5.57325 19.6313 7.26443 18.4977V28.6849ZM9.44087 8.31774C9.44087 8.12442 9.4698 7.93439 9.52635 7.74897C9.6789 7.2545 9.87484 6.83237 10.0688 6.48913C10.4048 5.89538 10.9493 5.44694 11.5963 5.23127C11.616 5.22469 11.6357 5.21812 11.6548 5.21154C11.8823 5.1333 12.1328 5.22009 12.2637 5.4213C12.3945 5.6225 12.3715 5.88749 12.2078 6.06305C12.1769 6.09593 12.146 6.1288 12.1144 6.16037C12.0158 6.26228 11.9934 6.41615 12.0592 6.54174C12.1249 6.66733 12.2643 6.73637 12.4037 6.71335C13.7674 6.48848 16.1569 5.89012 17.954 4.34031C18.4307 3.93001 19.1454 3.97078 19.5722 4.43302C19.9765 4.87226 20.2382 5.41735 20.3277 6.00782C20.4283 6.66732 20.4815 7.43204 20.4815 8.31774C20.4815 11.7586 18.0191 15.9149 14.9602 15.9149C11.9033 15.9149 9.44087 11.7593 9.44087 8.31774ZM15.4882 28.6849H14.5374L10.0116 17.441L12.8383 16.7296C13.5038 17.0491 14.2165 17.2286 14.9615 17.2286C15.7335 17.2286 16.4673 17.0452 17.1478 16.7184L20.0226 17.4469L15.4882 28.6849ZM25.5163 27.8386C25.5163 28.293 25.1375 28.6849 24.6832 28.6849H22.7855V18.526C24.4524 19.6628 25.5156 21.569 25.5156 23.6823V27.8386H25.5163Z" fill="white"/>
<path d="M14.9918 23.163C15.4065 23.163 15.7427 22.8268 15.7427 22.4121C15.7427 21.9973 15.4065 21.6612 14.9918 21.6612C14.5771 21.6612 14.2409 21.9973 14.2409 22.4121C14.2409 22.8268 14.5771 23.163 14.9918 23.163Z" fill="white"/>
<path d="M14.9918 25.8418C15.4065 25.8418 15.7427 25.5056 15.7427 25.0908C15.7427 24.6761 15.4065 24.3399 14.9918 24.3399C14.5771 24.3399 14.2409 24.6761 14.2409 25.0908C14.2409 25.5056 14.5771 25.8418 14.9918 25.8418Z" fill="white"/>
<path d="M17.2254 17.8481L15.8729 18.24C15.8518 18.2453 15.8314 18.2505 15.8097 18.2538C15.5908 18.0618 15.3067 17.9342 14.9944 17.9342C14.6821 17.9342 14.398 18.0612 14.179 18.2538C14.158 18.2505 14.137 18.2453 14.1166 18.24L12.7686 17.8475C12.3649 17.7311 11.9816 18.0355 11.9816 18.4557V19.989C11.9816 20.4105 12.3656 20.7136 12.7706 20.5966L14.1784 20.1863C14.3973 20.3809 14.6814 20.5019 14.995 20.5111C15.3093 20.5019 15.5941 20.3809 15.8137 20.1863L17.2247 20.5966C17.6285 20.7136 18.019 20.4105 18.019 19.989V18.4557C18.0184 18.0348 17.6298 17.7317 17.2254 17.8481Z" fill="white"/>
</g>
<defs>
<clipPath id="clip0">
<rect width="30" height="30" fill="white"/>
</clipPath>
</defs>
</svg>
