<svg width="25" height="25" viewBox="0 0 25 25" fill="none" xmlns="http://www.w3.org/2000/svg">
<path d="M8.70117 9.375H16.0254C16.1031 9.375 16.1776 9.34413 16.2325 9.28919C16.2875 9.23425 16.3184 9.15973 16.3184 9.08203C16.3184 9.00433 16.2875 8.92981 16.2325 8.87487C16.1776 8.81993 16.1031 8.78906 16.0254 8.78906H8.70117C8.62347 8.78906 8.54895 8.81993 8.49401 8.87487C8.43907 8.92981 8.4082 9.00433 8.4082 9.08203C8.4082 9.15973 8.43907 9.23425 8.49401 9.28919C8.54895 9.34413 8.62347 9.375 8.70117 9.375Z" fill="white"/>
<path d="M5.74286 9.02778L5.09193 9.6501L4.82792 9.38608C4.80085 9.35827 4.76853 9.33612 4.73283 9.3209C4.69713 9.30569 4.65876 9.29772 4.61995 9.29746C4.58114 9.2972 4.54267 9.30465 4.50677 9.31938C4.47087 9.33411 4.43825 9.35583 4.41081 9.38328C4.38337 9.41072 4.36166 9.44334 4.34693 9.47924C4.3322 9.51515 4.32475 9.55362 4.32502 9.59243C4.32528 9.63124 4.33326 9.6696 4.34847 9.7053C4.36369 9.741 4.38585 9.77332 4.41366 9.80039L4.88022 10.267C4.93435 10.3211 5.00753 10.3519 5.08409 10.3528C5.16065 10.3536 5.2345 10.3245 5.28984 10.2716L6.14779 9.45127C6.17587 9.42474 6.19842 9.39293 6.21416 9.35766C6.22989 9.32239 6.2385 9.28436 6.23948 9.24575C6.24046 9.20714 6.2338 9.16871 6.21987 9.13269C6.20595 9.09667 6.18504 9.06375 6.15835 9.03583C6.13166 9.00792 6.09971 8.98556 6.06435 8.97004C6.02898 8.95452 5.9909 8.94614 5.95228 8.94539C5.91367 8.94464 5.87529 8.95154 5.83935 8.96568C5.80341 8.97982 5.77062 9.00092 5.74286 9.02778Z" fill="white"/>
<path d="M5.28324 7.66113C4.88997 7.66113 4.50554 7.77775 4.17855 7.99624C3.85156 8.21473 3.59671 8.52527 3.44621 8.8886C3.29572 9.25194 3.25635 9.65173 3.33307 10.0374C3.4098 10.4232 3.59918 10.7774 3.87726 11.0555C4.15535 11.3336 4.50965 11.523 4.89536 11.5997C5.28107 11.6764 5.68087 11.637 6.04419 11.4865C6.40752 11.336 6.71806 11.0812 6.93654 10.7542C7.15502 10.4272 7.27163 10.0427 7.27162 9.64946C7.27102 9.1223 7.06134 8.6169 6.68858 8.24414C6.31581 7.87138 5.8104 7.66171 5.28324 7.66113ZM5.28324 11.0519C5.00586 11.0519 4.73472 10.9697 4.50409 10.8156C4.27346 10.6614 4.0937 10.4424 3.98755 10.1862C3.88141 9.92989 3.85363 9.64791 3.90775 9.37586C3.96186 9.10381 4.09543 8.85392 4.29156 8.65779C4.4877 8.46165 4.73759 8.32808 5.00964 8.27397C5.28168 8.21986 5.56367 8.24763 5.81993 8.35378C6.07619 8.45992 6.29523 8.63968 6.44933 8.87031C6.60343 9.10094 6.68568 9.37209 6.68568 9.64946C6.68532 10.0213 6.53745 10.3778 6.27453 10.6408C6.0116 10.9038 5.6551 11.0517 5.28324 11.0521V11.0519Z" fill="white"/>
<path d="M8.70117 14.2578H16.0254C16.1031 14.2578 16.1776 14.2269 16.2325 14.172C16.2875 14.1171 16.3184 14.0425 16.3184 13.9648C16.3184 13.8871 16.2875 13.8126 16.2325 13.7577C16.1776 13.7027 16.1031 13.6719 16.0254 13.6719H8.70117C8.62347 13.6719 8.54895 13.7027 8.49401 13.7577C8.43907 13.8126 8.4082 13.8871 8.4082 13.9648C8.4082 14.0425 8.43907 14.1171 8.49401 14.172C8.54895 14.2269 8.62347 14.2578 8.70117 14.2578Z" fill="white"/>
<path d="M5.74286 13.9106L5.09193 14.5329L4.82792 14.2689C4.80085 14.2411 4.76853 14.2189 4.73283 14.2037C4.69713 14.1885 4.65876 14.1805 4.61995 14.1803C4.58114 14.18 4.54267 14.1875 4.50677 14.2022C4.47087 14.2169 4.43825 14.2386 4.41081 14.2661C4.38337 14.2935 4.36166 14.3262 4.34693 14.3621C4.3322 14.398 4.32475 14.4364 4.32502 14.4752C4.32528 14.514 4.33326 14.5524 4.34847 14.5881C4.36369 14.6238 4.38585 14.6561 4.41366 14.6832L4.88022 15.1498C4.93435 15.2039 5.00753 15.2347 5.08409 15.2356C5.16065 15.2364 5.2345 15.2073 5.28984 15.1544L6.14779 14.3341C6.17587 14.3076 6.19842 14.2757 6.21416 14.2405C6.22989 14.2052 6.2385 14.1672 6.23948 14.1286C6.24046 14.0899 6.2338 14.0515 6.21987 14.0155C6.20595 13.9795 6.18504 13.9466 6.15835 13.9186C6.13166 13.8907 6.09971 13.8684 6.06435 13.8528C6.02898 13.8373 5.9909 13.829 5.95228 13.8282C5.91367 13.8275 5.87529 13.8343 5.83935 13.8485C5.80341 13.8626 5.77062 13.8837 5.74286 13.9106Z" fill="white"/>
<path d="M5.28324 12.5439C4.88997 12.5439 4.50554 12.6606 4.17855 12.8791C3.85156 13.0975 3.59671 13.4081 3.44621 13.7714C3.29572 14.1347 3.25635 14.5345 3.33307 14.9203C3.4098 15.306 3.59918 15.6603 3.87726 15.9383C4.15535 16.2164 4.50965 16.4058 4.89536 16.4825C5.28107 16.5592 5.68087 16.5198 6.04419 16.3693C6.40752 16.2188 6.71806 15.964 6.93654 15.637C7.15502 15.31 7.27163 14.9255 7.27162 14.5323C7.27102 14.0051 7.06134 13.4997 6.68858 13.127C6.31581 12.7542 5.8104 12.5445 5.28324 12.5439ZM5.28324 15.9347C5.00586 15.9347 4.73472 15.8525 4.50409 15.6984C4.27346 15.5443 4.0937 15.3252 3.98755 15.069C3.88141 14.8127 3.85363 14.5307 3.90775 14.2587C3.96186 13.9866 4.09543 13.7367 4.29156 13.5406C4.4877 13.3445 4.73759 13.2109 5.00964 13.1568C5.28168 13.1027 5.56367 13.1304 5.81993 13.2366C6.07619 13.3427 6.29523 13.5225 6.44933 13.7531C6.60343 13.9838 6.68568 14.2549 6.68568 14.5323C6.68532 14.9041 6.53745 15.2607 6.27453 15.5236C6.0116 15.7866 5.6551 15.9345 5.28324 15.9349V15.9347Z" fill="white"/>
<path d="M5.74286 18.7934L5.09193 19.4157L4.82792 19.1517C4.80085 19.1239 4.76853 19.1017 4.73283 19.0865C4.69713 19.0713 4.65876 19.0634 4.61995 19.0631C4.58114 19.0628 4.54267 19.0703 4.50677 19.085C4.47087 19.0997 4.43825 19.1215 4.41081 19.1489C4.38337 19.1763 4.36166 19.209 4.34693 19.2449C4.3322 19.2808 4.32475 19.3193 4.32502 19.3581C4.32528 19.3969 4.33326 19.4352 4.34847 19.4709C4.36369 19.5066 4.38585 19.539 4.41366 19.566L4.88022 20.0326C4.93435 20.0868 5.00753 20.1175 5.08409 20.1184C5.16065 20.1193 5.2345 20.0901 5.28984 20.0372L6.14779 19.2169C6.17587 19.1904 6.19842 19.1586 6.21416 19.1233C6.22989 19.088 6.2385 19.05 6.23948 19.0114C6.24046 18.9728 6.2338 18.9343 6.21987 18.8983C6.20595 18.8623 6.18504 18.8294 6.15835 18.8015C6.13166 18.7736 6.09971 18.7512 6.06435 18.7357C6.02898 18.7201 5.9909 18.7118 5.95228 18.711C5.91367 18.7103 5.87529 18.7172 5.83935 18.7313C5.80341 18.7454 5.77062 18.7666 5.74286 18.7934Z" fill="white"/>
<path d="M5.28324 17.4268C4.88997 17.4268 4.50554 17.5434 4.17855 17.7619C3.85156 17.9804 3.59671 18.2909 3.44621 18.6542C3.29572 19.0176 3.25635 19.4174 3.33307 19.8031C3.4098 20.1888 3.59918 20.5431 3.87726 20.8211C4.15535 21.0992 4.50965 21.2886 4.89536 21.3653C5.28107 21.442 5.68087 21.4026 6.04419 21.2521C6.40752 21.1016 6.71806 20.8468 6.93654 20.5198C7.15502 20.1928 7.27163 19.8084 7.27162 19.4151C7.27102 18.8879 7.06134 18.3825 6.68858 18.0098C6.31581 17.637 5.8104 17.4273 5.28324 17.4268ZM5.28324 20.8175C5.00586 20.8175 4.73472 20.7353 4.50409 20.5812C4.27346 20.4271 4.0937 20.208 3.98755 19.9518C3.88141 19.6955 3.85363 19.4135 3.90775 19.1415C3.96186 18.8694 4.09543 18.6195 4.29156 18.4234C4.4877 18.2273 4.73759 18.0937 5.00964 18.0396C5.28168 17.9855 5.56367 18.0133 5.81993 18.1194C6.07619 18.2255 6.29523 18.4053 6.44933 18.6359C6.60343 18.8666 6.68568 19.1377 6.68568 19.4151C6.68532 19.7869 6.53745 20.1435 6.27453 20.4064C6.0116 20.6694 5.6551 20.8173 5.28324 20.8177V20.8175Z" fill="white"/>
<path d="M8.70117 10.3516H12.6074C12.6851 10.3516 12.7596 10.3207 12.8146 10.2658C12.8695 10.2108 12.9004 10.1363 12.9004 10.0586C12.9004 9.98089 12.8695 9.90638 12.8146 9.85143C12.7596 9.79649 12.6851 9.76562 12.6074 9.76562H8.70117C8.62347 9.76562 8.54895 9.79649 8.49401 9.85143C8.43907 9.90638 8.4082 9.98089 8.4082 10.0586C8.4082 10.1363 8.43907 10.2108 8.49401 10.2658C8.54895 10.3207 8.62347 10.3516 8.70117 10.3516Z" fill="white"/>
<path d="M8.70117 15.2344H12.6074C12.6851 15.2344 12.7596 15.2035 12.8146 15.1486C12.8695 15.0936 12.9004 15.0191 12.9004 14.9414C12.9004 14.8637 12.8695 14.7892 12.8146 14.7342C12.7596 14.6793 12.6851 14.6484 12.6074 14.6484H8.70117C8.62347 14.6484 8.54895 14.6793 8.49401 14.7342C8.43907 14.7892 8.4082 14.8637 8.4082 14.9414C8.4082 15.0191 8.43907 15.0936 8.49401 15.1486C8.54895 15.2035 8.62347 15.2344 8.70117 15.2344Z" fill="white"/>
<path d="M2.88086 4.59473C2.80316 4.59473 2.72864 4.62559 2.6737 4.68054C2.61876 4.73548 2.58789 4.81 2.58789 4.8877V5.19531C2.58789 5.27301 2.61876 5.34753 2.6737 5.40247C2.72864 5.45741 2.80316 5.48828 2.88086 5.48828C2.95856 5.48828 3.03308 5.45741 3.08802 5.40247C3.14296 5.34753 3.17383 5.27301 3.17383 5.19531V4.8877C3.17383 4.81 3.14296 4.73548 3.08802 4.68054C3.03308 4.62559 2.95856 4.59473 2.88086 4.59473Z" fill="white"/>
<path d="M2.88086 5.82964C2.80316 5.82964 2.72864 5.8605 2.6737 5.91544C2.61876 5.97039 2.58789 6.0449 2.58789 6.1226V8.95464C2.58789 9.03234 2.61876 9.10685 2.6737 9.1618C2.72864 9.21674 2.80316 9.24761 2.88086 9.24761C2.95856 9.24761 3.03308 9.21674 3.08802 9.1618C3.14296 9.10685 3.17383 9.03234 3.17383 8.95464V6.1226C3.17383 6.08413 3.16625 6.04603 3.15153 6.01049C3.1368 5.97495 3.11522 5.94265 3.08802 5.91544C3.06081 5.88824 3.02852 5.86666 2.99297 5.85194C2.95743 5.83721 2.91933 5.82964 2.88086 5.82964Z" fill="white"/>
<path d="M22.3277 13.0713C22.1317 13.0302 21.9295 13.0283 21.7328 13.0659C21.536 13.1034 21.3487 13.1796 21.1816 13.29L18.1641 15.2718V4.27856C18.1641 3.30933 17.3675 2.53906 16.3982 2.53906H14.5508V1.62964C14.5508 1.55194 14.5199 1.47742 14.465 1.42248C14.41 1.36754 14.3355 1.33667 14.2578 1.33667C14.1801 1.33667 14.1056 1.36754 14.0507 1.42248C13.9957 1.47742 13.9648 1.55194 13.9648 1.62964V2.53906H11.4746V1.62964C11.4746 1.55194 11.4437 1.47742 11.3888 1.42248C11.3339 1.36754 11.2593 1.33667 11.1816 1.33667C11.1039 1.33667 11.0294 1.36754 10.9745 1.42248C10.9195 1.47742 10.8887 1.55194 10.8887 1.62964V2.53906H8.44727V1.62964C8.44727 1.55194 8.4164 1.47742 8.36146 1.42248C8.30652 1.36754 8.232 1.33667 8.1543 1.33667C8.0766 1.33667 8.00208 1.36754 7.94714 1.42248C7.8922 1.47742 7.86133 1.55194 7.86133 1.62964V2.53906H5.3711V1.62964C5.3711 1.55194 5.34023 1.47742 5.28529 1.42248C5.23034 1.36754 5.15583 1.33667 5.07813 1.33667C5.00043 1.33667 4.92591 1.36754 4.87097 1.42248C4.81602 1.47742 4.78516 1.55194 4.78516 1.62964V2.53906H3.21465C2.98527 2.53742 2.75784 2.58122 2.54548 2.66794C2.33312 2.75465 2.14003 2.88255 1.97735 3.04427C1.81467 3.20599 1.68563 3.39832 1.59767 3.61017C1.5097 3.82201 1.46456 4.04918 1.46485 4.27856V21.9055C1.46485 22.8748 2.24536 23.6816 3.21465 23.6816H16.3982C17.3675 23.6816 18.1641 22.8748 18.1641 21.9055V18.9189L22.8558 15.8379C23.1077 15.6724 23.305 15.4358 23.4225 15.1582C23.54 14.8805 23.5726 14.5743 23.5161 14.2782C23.4596 13.982 23.3165 13.7093 23.1049 13.4945C22.8934 13.2796 22.6229 13.1324 22.3277 13.0713ZM14.2413 4.37373C14.3437 4.37373 14.4439 4.40411 14.5291 4.46104C14.6143 4.51797 14.6807 4.59888 14.7199 4.69354C14.7591 4.78821 14.7694 4.89237 14.7494 4.99287C14.7294 5.09336 14.68 5.18567 14.6076 5.25813C14.5351 5.33058 14.4428 5.37992 14.3423 5.39991C14.2418 5.4199 14.1377 5.40964 14.043 5.37043C13.9483 5.33122 13.8674 5.26481 13.8105 5.17962C13.7536 5.09442 13.7232 4.99426 13.7232 4.8918C13.7233 4.75444 13.778 4.62275 13.8751 4.52563C13.9722 4.4285 14.1039 4.37387 14.2413 4.37373ZM11.1884 4.37373C11.2908 4.37374 11.391 4.40413 11.4762 4.46106C11.5614 4.518 11.6278 4.59891 11.667 4.69358C11.7062 4.78824 11.7164 4.8924 11.6964 4.9929C11.6764 5.09339 11.6271 5.18569 11.5546 5.25814C11.4822 5.33059 11.3899 5.37993 11.2894 5.39991C11.1889 5.4199 11.0847 5.40964 10.9901 5.37042C10.8954 5.33121 10.8145 5.26481 10.7576 5.17961C10.7006 5.09442 10.6703 4.99426 10.6703 4.8918C10.6704 4.75444 10.7251 4.62275 10.8222 4.52562C10.9193 4.4285 11.051 4.37387 11.1884 4.37373ZM8.1354 4.37373C8.23786 4.37376 8.33801 4.40417 8.42318 4.46111C8.50836 4.51805 8.57474 4.59898 8.61393 4.69364C8.65312 4.78831 8.66336 4.89247 8.64335 4.99296C8.62334 5.09344 8.57399 5.18574 8.50153 5.25818C8.42907 5.33062 8.33676 5.37994 8.23627 5.39992C8.13578 5.4199 8.03162 5.40963 7.93697 5.37041C7.84231 5.3312 7.76141 5.2648 7.70449 5.1796C7.64757 5.09441 7.61719 4.99425 7.61719 4.8918C7.61734 4.75442 7.672 4.62271 7.76915 4.52559C7.8663 4.42846 7.99802 4.37385 8.1354 4.37373ZM5.08252 4.37373C5.18498 4.37374 5.28514 4.40413 5.37033 4.46106C5.45552 4.518 5.52191 4.59891 5.56112 4.69358C5.60032 4.78824 5.61057 4.8924 5.59058 4.9929C5.57058 5.09339 5.52124 5.18569 5.44878 5.25814C5.37633 5.33059 5.28402 5.37993 5.18352 5.39991C5.08303 5.4199 4.97887 5.40964 4.88421 5.37042C4.78954 5.33121 4.70864 5.26481 4.65171 5.17961C4.59479 5.09442 4.56441 4.99426 4.56441 4.8918C4.56456 4.75444 4.6192 4.62275 4.71633 4.52562C4.81347 4.4285 4.94516 4.37387 5.08252 4.37373ZM17.5781 21.9055C17.5767 22.2189 17.4522 22.5193 17.2316 22.7419C17.0109 22.9645 16.7116 23.0915 16.3982 23.0957H3.21465C2.56836 23.0957 2.05078 22.5517 2.05078 21.9055V4.27856C2.05042 4.1261 2.08035 3.97509 2.13884 3.83429C2.19732 3.6935 2.28321 3.56573 2.39149 3.4584C2.49977 3.35108 2.6283 3.26633 2.76961 3.2091C2.91092 3.15187 3.0622 3.12328 3.21465 3.125H4.78516V3.82754C4.3457 3.95625 3.97632 4.38447 3.97632 4.89199C3.97632 5.03694 4.00487 5.18047 4.06034 5.31438C4.11581 5.4483 4.19711 5.56997 4.2996 5.67247C4.4021 5.77496 4.52377 5.85626 4.65769 5.91173C4.7916 5.9672 4.93513 5.99575 5.08008 5.99575C5.22503 5.99575 5.36856 5.9672 5.50247 5.91173C5.63638 5.85626 5.75806 5.77496 5.86056 5.67247C5.96305 5.56997 6.04435 5.4483 6.09982 5.31438C6.15529 5.18047 6.18384 5.03694 6.18384 4.89199C6.18731 4.64914 6.10907 4.41216 5.96168 4.21912C5.81428 4.02607 5.60629 3.88817 5.3711 3.82754V3.125H7.86133V3.82754C7.62533 3.8878 7.41631 4.02538 7.26762 4.21831C7.11894 4.41125 7.03916 4.64842 7.04102 4.89199C7.04102 5.1851 7.15745 5.46621 7.36472 5.67347C7.57198 5.88073 7.85308 5.99717 8.14619 5.99717C8.4393 5.99717 8.72041 5.88073 8.92767 5.67347C9.13493 5.46621 9.25137 5.1851 9.25137 4.89199C9.24721 4.65231 9.16712 4.42013 9.02262 4.22885C8.87813 4.03757 8.67668 3.89706 8.44727 3.82754V3.125H10.8887V3.82754C10.4492 3.95625 10.081 4.38447 10.081 4.89199C10.081 5.18466 10.1973 5.46535 10.4042 5.6723C10.6112 5.87924 10.8919 5.99551 11.1845 5.99551C11.4772 5.99551 11.7579 5.87924 11.9648 5.6723C12.1718 5.46535 12.288 5.18466 12.288 4.89199C12.2913 4.64908 12.213 4.41209 12.0654 4.21906C11.9179 4.02604 11.7099 3.88815 11.4746 3.82754V3.125H13.9648V3.82754C13.7289 3.88781 13.52 4.02542 13.3715 4.21838C13.223 4.41134 13.1434 4.64851 13.1456 4.89199C13.1456 5.18506 13.262 5.46613 13.4692 5.67337C13.6764 5.8806 13.9575 5.99702 14.2506 5.99702C14.5437 5.99702 14.8247 5.8806 15.032 5.67337C15.2392 5.46613 15.3556 5.18506 15.3556 4.89199C15.3556 4.38467 14.9902 3.95645 14.5508 3.82754V3.125H16.3982C17.0444 3.125 17.5781 3.63242 17.5781 4.27856V15.6565L16.4777 16.3792C16.4439 16.4014 16.415 16.4304 16.393 16.4643C16.3709 16.4982 16.3562 16.5363 16.3495 16.5762C16.3429 16.6161 16.3447 16.657 16.3546 16.6962C16.3646 16.7354 16.3826 16.7721 16.4074 16.804C16.4527 16.8621 16.5181 16.901 16.5907 16.913C16.6633 16.925 16.7378 16.9092 16.7993 16.8688L21.1557 14.008L21.51 14.5474L14.1293 19.3945L13.7749 18.8551L15.1616 17.9446C15.1937 17.9235 15.2214 17.8963 15.2431 17.8644C15.2647 17.8326 15.2798 17.7969 15.2876 17.7592C15.2954 17.7215 15.2958 17.6827 15.2886 17.6449C15.2814 17.6071 15.2668 17.5711 15.2457 17.5389C15.2245 17.5068 15.1973 17.4791 15.1655 17.4574C15.1337 17.4358 15.0979 17.4207 15.0602 17.4128C15.0225 17.405 14.9837 17.4047 14.9459 17.4119C14.9081 17.4191 14.8721 17.4337 14.8399 17.4548L13.2096 18.5254C13.2066 18.5274 13.2039 18.5299 13.2009 18.532C13.1935 18.5373 13.1862 18.5425 13.1791 18.5485C13.1768 18.5504 13.1747 18.5527 13.1725 18.5547H8.70117C8.62347 18.5547 8.54896 18.5856 8.49401 18.6405C8.43907 18.6955 8.4082 18.77 8.4082 18.8477C8.4082 18.9254 8.43907 18.9999 8.49401 19.0549C8.54896 19.1098 8.62347 19.1407 8.70117 19.1407H12.8423L12.6348 19.5327C12.6258 19.5318 12.6167 19.5313 12.6074 19.5313H8.70117C8.62347 19.5313 8.54895 19.5622 8.49401 19.6171C8.43907 19.6721 8.4082 19.7466 8.4082 19.8243C8.4082 19.902 8.43907 19.9765 8.49401 20.0314C8.54895 20.0864 8.62347 20.1172 8.70117 20.1172H12.3254L11.9867 20.7571C11.9631 20.8018 11.9514 20.8517 11.9528 20.9022C11.9542 20.9527 11.9686 21.002 11.9946 21.0453C12.0207 21.0885 12.0575 21.1243 12.1014 21.1492C12.1454 21.1741 12.195 21.1871 12.2455 21.1872C12.2481 21.1872 12.2507 21.1872 12.2532 21.1872L14.7292 21.1223C14.7352 21.1223 14.7411 21.1211 14.747 21.1206C14.753 21.1201 14.7598 21.1198 14.7661 21.1188C14.7739 21.1176 14.7814 21.1156 14.7889 21.1139C14.7945 21.1126 14.8001 21.1117 14.8057 21.11C14.8185 21.1062 14.831 21.1015 14.8431 21.0959C14.8461 21.0946 14.8489 21.0927 14.8518 21.091C14.8613 21.0864 14.8705 21.0813 14.8794 21.0757C14.8804 21.075 14.8814 21.0747 14.8823 21.0741L17.5781 19.3038V21.9055ZM14.1876 20.5502L12.739 20.5881L13.3963 19.346L14.1876 20.5502ZM14.8055 20.4236L14.783 20.3894L14.4509 19.8843L21.8316 15.0374L22.186 15.5767L14.8055 20.4236ZM22.6674 15.2419L21.654 13.6995C21.7788 13.647 21.9135 13.6219 22.0489 13.626C22.1843 13.6301 22.3173 13.6632 22.4388 13.7231C22.5091 13.757 22.5744 13.8006 22.6328 13.8525C22.7315 13.9382 22.8113 14.0436 22.867 14.1619C22.9227 14.2802 22.9532 14.4088 22.9565 14.5396C22.9597 14.6703 22.9357 14.8003 22.8859 14.9212C22.8362 15.0421 22.7618 15.1514 22.6674 15.2419Z" fill="white"/>
</svg>
